<svg width="120" height="120" viewBox="0 0 120 120" fill="none" xmlns="http://www.w3.org/2000/svg">
  <rect width="120" height="120" rx="28" fill="#1E2030"/>
  <rect x="14" y="70" width="92" height="32" rx="10" fill="#C6A0F6"/>
  <rect x="20" y="78" width="80" height="16" rx="6" fill="#181926"/>
  <rect x="28" y="82" width="12" height="8" rx="2" fill="#8BD5CA"/>
  <rect x="46" y="82" width="12" height="8" rx="2" fill="#8BD5CA"/>
  <rect x="64" y="82" width="12" height="8" rx="2" fill="#8BD5CA"/>
  <rect x="82" y="82" width="12" height="8" rx="2" fill="#8BD5CA"/>
  <circle cx="60" cy="50" r="36" fill="#F4DBD6"/>
  <ellipse cx="60" cy="92" rx="26" ry="14" fill="#24273A"/>
  <path d="M33 46C34 34 44 26 60 26C76 26 86 34 87 46" stroke="#181926" stroke-width="4" stroke-linecap="round"/>
  <path d="M44 58C45.5 60.5 49 64 60 64C71 64 74.5 60.5 76 58" stroke="#181926" stroke-width="4" stroke-linecap="round"/>
  <circle cx="45" cy="50" r="6" fill="#FFFFFF"/>
  <circle cx="75" cy="50" r="6" fill="#FFFFFF"/>
  <circle cx="45" cy="50" r="3" fill="#24273A"/>
  <circle cx="75" cy="50" r="3" fill="#24273A"/>
  <rect x="32" y="47" width="22" height="12" rx="6" stroke="#8AADF4" stroke-width="4"/>
  <rect x="66" y="47" width="22" height="12" rx="6" stroke="#8AADF4" stroke-width="4"/>
  <rect x="54" y="42" width="12" height="6" rx="3" fill="#8AADF4"/>
  <path d="M40 71C44 75 50 78 60 78C70 78 76 75 80 71" stroke="#F5BDE6" stroke-width="4" stroke-linecap="round"/>
  <rect x="50" y="14" width="20" height="14" rx="6" fill="#C6A0F6"/>
  <rect x="44" y="14" width="32" height="6" rx="3" fill="#F5BDE6"/>
  <circle cx="37" cy="33" r="6" fill="#C6A0F6"/>
  <circle cx="83" cy="33" r="6" fill="#C6A0F6"/>
</svg>
